# xmcd
#
# Track frame offsets:
#	150
#	17603
#	38838
#	61874
#	79682
#	98576
#	116436
#	135978
#	155242
#	172552
#	189935
#	206876
#	228731
#	249315
#	266545
#	281671
#
# Disc length: 3934 seconds
#
# Revision: 2
# Processed by: cddbd v1.5.2PL0 Copyright (c) Steve Scherf et al.
# Submitted via: EasyCDDAExtractor 5.0.7
#
DISCID=ca0f5c10
DTITLE=LOS TEMERARIOS - REGALO DE AMOR
DYEAR=2005
DGENRE=Country
TTITLE0=ESOS AMORES
TTITLE1=TE HICE MAL
TTITLE2=COMO TE RECUERDO
TTITLE3=UNA TARDE FUE
TTITLE4=MI VIDA ERES TU
TTITLE5=COMO TU
TTITLE6=DICEN QUE LA DISTANCIA
TTITLE7=ME RESISTO
TTITLE8=HE INTENTADO TANTO, TANTO
TTITLE9=BELLA PERO MALA
TTITLE10=ESTABA SOLO
TTITLE11=ERAS TODO PARA MI
TTITLE12=DIJISTE ADIOS
TTITLE13=EN LA MADRUGADA SE FUE
TTITLE14=SOMBRAS (VERSION POP)
TTITLE15=SOMBRAS (VERSION BACHATA)
EXTD=
EXTT0=
EXTT1=
EXTT2=
EXTT3=
EXTT4=
EXTT5=
EXTT6=
EXTT7=
EXTT8=
EXTT9=
EXTT10=
EXTT11=
EXTT12=
EXTT13=
EXTT14=
EXTT15=
PLAYORDER=
